<?xml version="1.0" encoding="utf-8"?>
<!-- Generator: Adobe Illustrator 27.7.0, SVG Export Plug-In . SVG Version: 6.00 Build 0)  -->
<svg version="1.1" id="Layer_1" xmlns="http://www.w3.org/2000/svg" xmlns:xlink="http://www.w3.org/1999/xlink" x="0px" y="0px"
	 viewBox="0 0 2500 1779" style="enable-background:new 0 0 2500 1779;" xml:space="preserve">
<style type="text/css">
	.st0{fill-rule:evenodd;clip-rule:evenodd;fill:#127384;}
</style>
<g>
	<path class="st0" d="M1582.4,1742.9h-0.2c-4.9,0.1-22.2,0.6-39.2,0c-43.2,0-89.8-32.8-89.8-85.8c0-52.6,45.7-84,89.6-83.9
		c0.5-0.1,22-1,39.6,0c44.2,0,89.9,31.4,89.9,84C1672.3,1710.2,1625.7,1742.9,1582.4,1742.9 M1624.6,1540.1
		c-61.4-1.4-123.9,0-124.4,0c-75.1,0-136.1,52.4-136.1,116.7c0,65.3,61,118.5,136.1,118.5c0.5,0,62.9,1.3,124.4,0
		c75.2,0,136.4-53.1,136.4-118.5C1761,1593.1,1701,1541.8,1624.6,1540.1 M2423.3,1772.3c0,0,73.6,0,76.5,0c0-3,0-112.1,0-112.1
		c0-65.4-58.3-116.8-132.6-116.8l-193.6,0c-3.2,0-10.5,0.8-10.5,8.5l0,211.6c0,5.7,4.1,8.7,8.1,8.7c0,0,78,0,80.9,0c0-3,0-177,0-177
		c0-7.8,5.8-11.9,11.6-11.9l89.2-0.1c24.7,0,61.2,22.6,61.2,71.1l0,108.9C2414,1763.4,2414.2,1772.3,2423.3,1772.3 M808.2,1588.8
		c0,0,116.4,0,119.4,0v-36.5c0-5.1-3.7-9-8.6-9H586.3c-5.4,0-8.7,4.5-8.7,8.8v36.6c2.9,0,79.6,0,79.6,0c29.9,0,49.9,25.8,49.9,49.8
		v125c0,4.1,3.6,8.7,8.8,8.7c0,0,77.8,0,80.7,0v-171.8C796.6,1594.1,801.8,1588.8,808.2,1588.8 M440.3,1763.6c0,5.1,4.6,8.7,8.8,8.7
		h4.5c0,0-0.3,0.3-0.6,0.6c2.3-0.6,10.1-0.6,37.2-0.6c0,0,36.7,0,39.5,0v-220.2c0-4.7-3.9-8.7-8.6-8.7h-72.1c-4.7,0-8.8,4-8.8,8.7
		L440.3,1763.6z M1064.6,1650.5v-45.7c0-12.5,8.8-21.2,21.5-21.2h118.8c18,0,33.2,15.2,33.2,33.2c0,18.6-15.1,33.7-33.6,33.7
		L1064.6,1650.5L1064.6,1650.5z M1238.3,1772.3h88.8c-1.4-55-58.3-77.8-64.9-80.2l-1.1-0.4l0.1-3.1l1.2-0.3
		c38-8.5,64.6-37.8,64.6-71.2c0-35.5-34.5-73.7-90.2-73.7l-214.7,0.1c-26,0-46.4,20.5-46.4,46.7v173.4c0,5,3.6,8.6,8.6,8.6
		c0,0,77.6,0.1,80.6,0.1c0-2.9-0.1-81.2-0.1-81.2h76.1C1208.4,1691.1,1236.3,1740.3,1238.3,1772.3L1238.3,1772.3z M304.7,1620.2
		h86.9c-18.8-47.9-71-80.7-130.9-81.9l-26.7-0.5c-41.9-0.9-61-1.3-97.6,0.5c-42.8,2.2-69.8,12-96.2,35.1c-25.8,22.6-40,52.4-40,84.1
		c0,65.5,57.9,116.8,134.6,119.5c52.6,1.9,58.2,1.9,127.2-0.1c63.9-1.9,109.7-31.1,129.5-81.8h-86.9c-3.3,0-5.8,1.5-7.5,4.4
		c-15.7,27.3-45.8,44.2-78.6,44.2c-17.9,0.7-39.4,0-39.4,0c-44.2,0-89.9-32.1-89.9-85.7l0-0.5c0.3-53.4,45.9-85.2,90.1-85.2
		c5-0.2,22.8-0.8,39.2,0c32.2,0,63.1,17.2,78.7,43.8C297.9,1617,300.1,1620.2,304.7,1620.2 M2115.2,1731.1h-210.4
		c-7.1,0-12.1-4.7-12.1-11.5V1676h182.4v-40.2h-182.4l-0.1-39.8c0-0.2-0.1-4.5,3.1-7.8c2.4-2.5,5.9-3.8,10.5-3.8h208.9v-32.1
		c0-2.7-0.8-4.9-2.3-6.4c-2.9-2.8-7.6-2.6-7.9-2.6h-292.6c-0.9,0-8.9,0.2-8.9,9l0,173.3c0,22.9,17.5,46.6,46.8,46.6l256.3,0
		c2.1,0,4.3-0.9,6-2.5c1.7-1.7,2.7-3.8,2.7-6C2115.2,1763.7,2115.2,1733.9,2115.2,1731.1 M2049.8,1460.6c-8.6-5.3-18.9-8-31-8
		c-12.1,0-22.8,2.8-31,8c-8.2,5.1-14.7,12-24.4,12c-9.7,0-15.5-6.9-24.2-12c-8.7-5.2-18.9-8-31-8s-22.4,2.6-31,8
		c-8.5,5.2-12.8,11.6-12.8,19c0,7.5,4.3,13.8,12.8,19c8.6,5.3,18.9,7.9,31,7.9c12,0,22.5-2.5,30.3-7.3c7.7-4.8,16.1-12.5,24.8-12.5
		c8.8,0,16.7,7,24.4,11.9c7.8,4.9,18.9,7.9,31,7.9c12.4,0,22.9-2.6,31.3-7.9c8.4-5.2,12.6-11.6,12.6-19
		C2062.6,1472.2,2058.3,1465.8,2049.8,1460.6 M1936.5,1246.3c-127.6-109.4-506.6-420.6-686.5-420.6c-180,0-558.7,311-686.4,420.5
		c-0.8-25.9-1.5-41.6-1.5-64.6c0,0-3.1-38,30.5-76.1c276.7-250.7,566.8-373.4,575.8-377.2c86.5-36.6,81.6-29.7,81.6-176.4
		c0,0,3.9-0.2,6.3,0c121.8,11,449.4,328.9,643.3,543.9c0.3,0.4,38.3,44.3,38.3,90.5C1937.9,1208,1937.2,1229.4,1936.5,1246.3
		 M1931.3,1066.8c-20.6-22.8-505.7-558.3-681.3-558.3c-175.6,0-660.7,535.5-681.2,558.3l0,0c-2,2.2-49.4,56.4-49.4,119.5
		c0,49.1,3.3,98.6,3.3,99c0.1,2.3,1.2,23.2,12.8,28.8c1.9,0.9,3.9,1.4,6,1.4c4.3,0,9.1-1.9,14.3-5.7
		c5.2-4.6,499.4-441.1,694.1-441.1c194.8,0,689,436.5,693.9,440.9c5.4,4,10.3,5.9,14.6,5.9c2.1,0,4.1-0.5,6-1.4
		c11.6-5.7,12.7-26.6,12.8-28.9c0-0.4,3.3-49.8,3.3-98.9C1980.6,1123.2,1933.3,1069.1,1931.3,1066.8 M1935.8,737
		c-127.4-109.2-506.1-420.2-685.8-420.2c-179.8,0-558.2,310.7-685.7,420.1c-0.8-25.8-1.5-41.5-1.5-64.5c0,0-3.1-38,30.5-76
		c276.5-250.5,566.3-373,575.2-376.8c86.4-36.5,81.6-29.7,81.5-176.2c0,0,3.8-0.2,6.3,0c121.7,11,448.9,328.6,642.6,543.3
		c0.3,0.4,38.2,44.2,38.2,90.5C1937.2,698.8,1936.5,720.1,1935.8,737 M1930.6,557.7C1910,534.9,1425.4,0,1250,0
		c-175.4,0-660,534.9-680.6,557.7l0,0c-2,2.2-49.3,56.3-49.3,119.4c0,49.1,3.3,98.5,3.3,98.9c0.1,2.3,1.2,23.1,12.8,28.8
		c1.9,0.9,3.9,1.4,6,1.4c4.3,0,9.1-1.9,14.3-5.7c5.3-4.6,498.9-440.7,693.5-440.7c194.6,0,688.3,436,693.2,440.5
		c5.4,4,10.2,5.9,14.6,5.9c2.1,0,4.1-0.4,6-1.4c11.6-5.7,12.7-26.5,12.8-28.9c0-0.4,3.3-49.8,3.3-98.8
		C1979.9,614.1,1932.6,560,1930.6,557.7"/>
</g>
</svg>
