<?xml version="1.0" encoding="utf-8"?>
<!-- Generator: Adobe Illustrator 27.7.0, SVG Export Plug-In . SVG Version: 6.00 Build 0)  -->
<svg version="1.1" id="Layer_1" xmlns="http://www.w3.org/2000/svg" xmlns:xlink="http://www.w3.org/1999/xlink" x="0px" y="0px"
	 viewBox="0 0 2500 1365" style="enable-background:new 0 0 2500 1365;" xml:space="preserve">
<style type="text/css">
	.st0{fill-rule:evenodd;clip-rule:evenodd;fill:#127384;}
	.st1{fill:#127384;}
</style>
<g>
	<path class="st0" d="M140.4,0.2v209.8h776.3v211.5H140.4v209.8h857.2c19.7,0,32.6-5.5,46-18.9l225.7-219.5L1495,612.3
		c13.4,13.5,26.4,18.9,46,18.9h857.2V421.5h-776.3V209.9h776.3V0.2H1541c-19.7,0-32.6,5.5-46,18.9l-225.7,219.5L1043.6,19.1
		c-13.4-13.5-26.4-18.9-46-18.9H140.4z M0,1102.3v86.7l319.1,2c7.6,0,11.8,1.7,16.7,6.6l33.9,29.3c2.5,2.5,3.6,4.1,3.6,6.6
		c0,2.6-1.1,4.2-3.6,6.6l-33.9,29.3c-4.8,4.8-9.1,6.6-16.7,6.6l-319.1,2v86.7h359c12.8,0,19.1-2.1,27.4-10.3l102.6-106
		c3.9-3.9,6.4-9.9,6.4-14.9c0-5-2.5-11.1-6.4-14.9l-102.6-106c-8.2-8.2-14.5-10.3-27.4-10.3L0,1102.3z"/>
	<path class="st1" d="M809.9,1102.3c-5.6,0-8.8,1.1-11.1,3.3L547,1358.5c-2.6,2.7-1.5,6.3,2.7,6.3h122.5L802,1230.1
		c2.7-2.7,4.7-3.8,7.9-3.8c3.2,0,5.2,1.1,7.9,3.8l129.9,134.7h122.5c4.1,0,5.3-3.7,2.7-6.3L821,1105.6
		C818.8,1103.4,815.6,1102.3,809.9,1102.3L809.9,1102.3z"/>
	<path class="st0" d="M1622,1102.3v86.7l-319.1,2c-7.6,0-11.8,1.7-16.7,6.6l-33.9,29.3c-2.5,2.5-3.6,4.1-3.6,6.6
		c0,2.6,1.1,4.2,3.6,6.6l33.9,29.3c4.8,4.8,9.1,6.6,16.7,6.6l319.1,2v86.7h-359c-12.8,0-19.1-2.1-27.4-10.3l-102.6-106
		c-3.9-3.9-6.4-9.9-6.4-14.9c0-5,2.5-11.1,6.4-14.9l102.6-106c8.2-8.2,14.5-10.3,27.4-10.3L1622,1102.3z"/>
	<path class="st1" d="M1771.8,1102.3h100.4v262.5h-100.4V1102.3z M2234.4,1102.3c-5.6,0-8.8,1.1-11.1,3.3l-251.9,252.9
		c-2.6,2.7-1.5,6.3,2.7,6.3h122.5l129.9-134.7c2.7-2.7,4.7-3.8,7.9-3.8c3.2,0,5.2,1.1,7.9,3.8l129.9,134.7h122.5
		c4.1,0,5.3-3.7,2.7-6.3l-251.9-252.9C2243.3,1103.4,2240.1,1102.3,2234.4,1102.3L2234.4,1102.3z"/>
</g>
</svg>
