<?xml version="1.0" encoding="utf-8"?>
<!-- Generator: Adobe Illustrator 27.7.0, SVG Export Plug-In . SVG Version: 6.00 Build 0)  -->
<svg version="1.1" id="Layer_1" xmlns="http://www.w3.org/2000/svg" xmlns:xlink="http://www.w3.org/1999/xlink" x="0px" y="0px"
	 viewBox="0 0 800 800" style="enable-background:new 0 0 800 800;" xml:space="preserve">
<style type="text/css">
	.st0{fill:#127384;}
</style>
<path class="st0" d="M705.8,208.3c16.3,38.3,24.2,81.4,24.2,131.9c0,27.3-2.3,56.3-6.9,88.9c-9.5,67-34.9,137-58.3,183.1
	c-3.8,7.4-6.8,12.4-12.9,17.8c-10.7,9.4-20.1,11.7-23.5,9.7c-2.8-1.7-4.4-10.1-3.8-22.4c0.5-10.5,3-18.3,6.8-30.8
	c17.9-59.1,31.3-119.4,40-180.5c12.8-88.8,12.3-168.7-6.7-217.3c-1.9-5-4.4-9.8-7.3-14.2c-2.1-3-3.5-4.5-3.5-4.5
	c-39.4-39.4-145.7-59.2-252-59.2s-212.6,19.8-251.9,59.2c0,0-1.5,1.5-3.5,4.5c-3,4.4-5.5,9.2-7.4,14.2
	c-19.1,48.7-19.5,128.6-6.7,217.4c8.7,60.2,22.4,124,40.9,183.5c3.2,10.2,5.3,17.2,5.8,28c0.5,12.3-1,20.7-3.8,22.3
	c-3.5,2-13-0.3-23.7-9.8c-7.7-6.8-11.5-13.5-16.3-23.4c-22.7-46.2-46.4-113.2-55.6-177.4c-4.4-29.4-6.7-59.1-6.9-88.9
	c0-50.5,7.9-93.6,24.2-131.8c12.2-28.7,32.8-52.7,59.4-69.4c65.5-41.4,140.2-65.7,217.5-70.7c9-0.6,18.1-0.8,27.2-0.9h0.7
	c9.1,0,18.3,0.3,27.3,0.9C505,72.8,580.2,97.3,646.4,139C672.8,155.5,693.6,179.7,705.8,208.3L705.8,208.3z M547.1,692.5
	c-2.9,0.6-12,2.8-21.1,5.2c-8.1,2.2-16.1,4-19.9,4.8c-34.2,6.4-69,9.6-103.8,9.5h-0.9c-37.2,0-72.6-3.4-103.8-9.5
	c-6.3-1.3-12.5-2.8-18.7-4.4c-6.7-1.8-13.4-3.4-20.1-4.9c-13.9-3.2-26.5-5.4-27.2-2.8c-0.8,3.1,5.4,9.6,13.4,15.7
	c1.9,1.4,6.5,4.7,11.9,7.3c5,2.4,10.7,4.3,12.9,5c36.6,11.8,78.2,16.7,131.4,16.7h0.7c52.1,0,93.1-4.7,129.2-16.1
	c12.4-3.9,19.7-7,28.4-14c7.3-5.8,12.8-11.8,12-14.7C570.8,687.9,559.8,689.7,547.1,692.5L547.1,692.5z M463.5,348.8
	c-4.8-27-10.7-47.7-17.3-61.7l-0.1-0.1h-0.7l-22.7-0.2h-0.3l-0.9,99.9H469l0-0.3C469,386.2,467.1,369,463.5,348.8L463.5,348.8z
	 M655.5,405c-10.7,74.3-29.3,154.1-55.3,223.4c-4.3,11.7-8.3,16-17.7,23.3c-24.3,17.1-51.9,28.8-81,34.3
	c-29.9,5.8-63.6,9.1-99.1,9.1h-1c-33.2,0.1-66.4-2.9-99.1-9.1c-29.2-5.5-56.8-17.2-81.1-34.3c-9.4-7.3-13.3-11.7-17.6-23.3
	c-26.1-69.3-44.7-149.1-55.4-223.4c-12.4-85.9-11.7-161.6,6-206.7c2.2-5.7,4.6-9.7,6.3-12.3c1.5-2.2,2.6-3.3,2.6-3.3
	c35.6-35.7,135.3-55.1,238.7-55.1c103.4,0,203.1,19.4,238.7,55.1c0,0,1.1,1.1,2.6,3.3c1.7,2.5,4.1,6.6,6.3,12.3
	C667.1,243.4,667.9,319.1,655.5,405L655.5,405z M296.8,252.2l-89.4-0.5l8.9,311.2l37.4,0.4l-0.5-141.7H287v-36.6h-33.8v-96.4h43.7
	L296.8,252.2L296.8,252.2z M359.3,251.5l-45.5,0.1l6,311.7h38.6L359.3,251.5L359.3,251.5z M474.3,252h-91.1l3.6,311.1h36.4
	l0.3-140.7h47.3l0.1,0.2c4.3,26.6,4.6,139,4.6,140.2v0.5h35.4l0.3-16C512.8,466.6,515.5,331.7,474.3,252L474.3,252z M618.3,251.5
	L506.8,252v35.9h33.3v0.3l-1.4,275.1h37.7l9.2-275.4h32.7V251.5L618.3,251.5z M799.2,400c0,220.6-179.1,400-399.2,400
	C179.9,800,0.8,620.6,0.8,400S179.9,0,400,0C620.1,0,799.2,179.4,799.2,400L799.2,400z M788.2,399.7C788,185.4,613.9,11,399.9,11
	c-211.9,0-384.6,171.1-388,382.7c4.7-10.8,12.7-19.9,22.8-26c21.8-12.9,27.8-46.2,29.8-66l0.4-2.1c-1.3,13.2-2.3,26.3-2.3,40.6
	c0,27.7,2.3,57.3,7,90.3c13.7,96.7,60.4,200.2,87.9,231.9l1.5,1.7l6.4,6.7l0.2,0.2c67,54.9,128.6,74.3,235.4,74.3h0.7
	c106.8,0,168.3-19.4,235.3-74.3l0.3-0.2l6.2-6.6l1.7-1.9c27.5-31.8,74.2-135.2,87.9-231.9c4.7-33,7-62.5,7-90.3
	c0-15.1-0.7-29.7-2.1-43.6l0.2,0.2c2,19.9,12.6,71.4,33.2,86.2C778.4,388,783.9,393.5,788.2,399.7L788.2,399.7z"/>
</svg>
