<svg xmlns="http://www.w3.org/2000/svg" xmlns:xlink="http://www.w3.org/1999/xlink" viewBox="0,0,256,256" width="480px" height="480px"><g fill="#127384" fill-rule="none" stroke="none" stroke-width="1" stroke-linecap="butt" stroke-linejoin="miter" stroke-miterlimit="10" stroke-dasharray="" stroke-dashoffset="0" font-family="none" font-weight="none" font-size="none" text-anchor="none" style="mix-blend-mode: normal"><g transform="scale(5.33333,5.33333)"><path d="M24,12c-13.255,0 -24,5.373 -24,12c0,6.627 10.745,12 24,12c13.255,0 24,-5.373 24,-12c0,-6.627 -10.745,-12 -24,-12zM24,34.489c-11.683,0 -21.189,-4.706 -21.189,-10.489c0,-5.783 9.505,-10.487 21.188,-10.487c11.683,0 21.188,4.704 21.188,10.487c0.001,5.783 -9.504,10.489 -21.187,10.489z" fill-rule="nonzero"></path><path d="M21.663,18.723h0.396c0.138,0 0.213,0.104 0.213,0.236v10.787c0,0.143 0.116,0.253 0.264,0.253h2.949c0.149,0 0.265,-0.11 0.265,-0.253v-11.492c0,-0.139 -0.119,-0.254 -0.265,-0.254h-3.822c-0.038,0 -0.038,0.035 -0.038,0.062v0.6c0,0.026 0,0.061 0.038,0.061zM28.24,30h2.853c0.138,0 0.285,-0.107 0.342,-0.249l2.434,-7.447c0,-0.002 0.028,-0.104 0.119,-0.104c0.087,0 0.116,0.103 0.117,0.104l2.46,7.447c0.058,0.145 0.202,0.249 0.343,0.249h2.852c0.1,0 0.157,-0.048 0.188,-0.088c0.055,-0.073 0.061,-0.165 0.043,-0.221l-3.97,-11.523c-0.062,-0.149 -0.217,-0.168 -0.345,-0.168h-4.611c-0.033,0 -0.065,0.03 -0.065,0.062v0.6c0,0.031 0.032,0.062 0.065,0.062h0.392c0.145,0 0.243,0.083 0.243,0.207c0,0.04 -0.009,0.083 -0.029,0.136l-3.662,10.625c-0.021,0.075 -0.005,0.157 0.044,0.22c0.045,0.057 0.112,0.088 0.187,0.088zM8.378,18.723c0.137,0 0.245,0.104 0.245,0.236v10.787c0,0.144 0.113,0.254 0.259,0.254h2.868c0.143,0 0.25,-0.113 0.25,-0.253v-4.537c0,-0.099 0.055,-0.156 0.138,-0.156c0.097,0 0.143,0.064 0.179,0.115c0.004,0.006 0.007,0.011 0.012,0.016l3.374,4.538c0.107,0.159 0.302,0.277 0.453,0.277h3.36c0.079,0 0.166,-0.055 0.207,-0.131c0.044,-0.082 0.033,-0.175 -0.031,-0.263c-0.01,-0.015 -4.213,-5.782 -4.256,-5.841c-0.013,-0.018 -0.018,-0.029 -0.026,-0.042c-0.009,-0.016 -0.018,-0.035 -0.021,-0.052c-0.003,-0.012 -0.007,-0.023 -0.007,-0.039c0,-0.049 0.025,-0.098 0.051,-0.151l0.003,-0.007l3.529,-5.11c0.045,-0.071 0.045,-0.165 0,-0.243c-0.043,-0.075 -0.12,-0.121 -0.204,-0.121h-3.19c-0.151,0 -0.348,0.118 -0.457,0.275l-2.786,3.805c-0.086,0.125 -0.171,0.131 -0.187,0.131h-0.003c-0.078,0 -0.138,-0.05 -0.138,-0.127v-3.831c0,-0.139 -0.116,-0.253 -0.259,-0.253h-3.676c-0.034,0 -0.065,0.03 -0.065,0.062v0.6c0,0.032 0.031,0.062 0.065,0.062h0.313z" fill-rule="evenodd"></path></g></g></svg>