<?xml version="1.0" encoding="utf-8"?>
<!-- Generator: Adobe Illustrator 27.7.0, SVG Export Plug-In . SVG Version: 6.00 Build 0)  -->
<svg version="1.1" id="Layer_1" xmlns="http://www.w3.org/2000/svg" xmlns:xlink="http://www.w3.org/1999/xlink" x="0px" y="0px"
	 viewBox="0 0 800 800" style="enable-background:new 0 0 800 800;" xml:space="preserve">
<style type="text/css">
	.st0{fill:#127384;}
</style>
<path class="st0" d="M400,186.4c-220,0-398.4,88.8-398.4,198.4S180,583.2,400,583.2s398.4-88.8,398.4-198.4S620,186.4,400,186.4z
	 M400,566.4c-210.4,0-380-80.8-380-181.6s169.6-181.6,380-181.6s380,81.6,380,181.6S610.4,566.4,400,566.4L400,566.4z"/>
<path class="st0" d="M400,210.4c-206.4,0-373.6,78.4-373.6,174.4S193.6,559.2,400,559.2s373.6-78.4,373.6-174.4
	S606.4,210.4,400,210.4z M558.4,344.8l38.4-16.8h-33.6l8.8-24.8h64.8l-8,24.8L556,352.8L558.4,344.8z M505.6,264.8
	c8.8,0,18.4,2.4,26.4,6.4c7.2,4.8,12.8,12.8,13.6,21.6c0.8,12-0.8,24-5.6,35.2s-12.8,20.8-22.4,28c-8.8,6.4-19.2,9.6-30.4,9.6h-46.4
	l31.2-91.2c0.8-3.2,0.8-6.4,0-10.4L505.6,264.8L505.6,264.8z M372.8,275.2c1.6-3.2,1.6-7.2,0-10.4h30.4l8.8,45.6l16-45.6h28.8
	L420,365.6h-28l-8-44l-17.6,44h-25.6L372.8,275.2z M298.4,264.8h31.2l5.6,100.8h-28.8l-1.6-12.8H276l-9.6,12.8h-28.8l59.2-91.2
	C298.4,272,299.2,268,298.4,264.8z M200.8,275.2c0.8-3.2,0.8-7.2,0-10.4h34.4l-26.4,78.4h29.6l-9.6,23.2h-60L200.8,275.2z
	 M196.8,421.6l-9.6,24.8h-65.6l9.6-24.8l72.8-24.8l-3.2,8l-38.4,16L196.8,421.6L196.8,421.6z M304,426.4c-2.4,6.4-6.4,11.2-12,15.2
	c-4.8,4-11.2,6.4-17.6,7.2l20,37.6h-29.6l-19.2-36l-12.8,36h-29.6l32.8-91.2c1.6-3.2,1.6-7.2,0-10.4h40.8c6.4,0,12.8,1.6,19.2,4.8
	c4,1.6,7.2,4.8,9.6,8.8C308.8,408,308.8,418.4,304,426.4z M392.8,464.8c-6.4,8-14.4,14.4-24,19.2c-8.8,4-18.4,4.8-28,4
	c-14.4-3.2-25.6-14.4-28.8-28.8c-2.4-10.4-2.4-20.8,0.8-30.4c6.4-20,21.6-36,40.8-43.2c12-4,24.8-1.6,35.2,4.8
	c8,5.6,13.6,13.6,15.2,23.2C408.8,431.2,404.8,450.4,392.8,464.8L392.8,464.8z M416.8,487.2l-1.6-91.2c0-3.2-0.8-7.2-2.4-10.4H444
	V440l36.8-54.4h33.6L439.2,488L416.8,487.2L416.8,487.2z M549.6,487.2h-64l31.2-88.8c1.6-4,1.6-8.8,0-12.8h68l-7.2,22.4H544
	l-5.6,17.6H564l-8,22.4h-24.8c-2.4,5.6-4,11.2-5.6,17.6h33.6L549.6,487.2z M664,426.4c-2.4,6.4-6.4,12-12,15.2
	c-4.8,4-11.2,6.4-17.6,7.2l20,37.6h-29.6l-19.2-36l-12.8,36h-29.6l32.8-91.2c1.6-3.2,1.6-7.2,0-10.4h40.8c6.4,0,12.8,1.6,18.4,4.8
	c4,1.6,7.2,4.8,9.6,8.8C668,408,668,417.6,664,426.4L664,426.4z"/>
<path class="st0" d="M492,340.8c3.2-1.6,5.6-3.2,8-5.6c4-4,7.2-8.8,8.8-14.4c4-10.4,9.6-30.4-3.2-30.4h-7.2l-18.4,52h7.2
	C488.8,342.4,490.4,341.6,492,340.8z"/>
<path class="st0" d="M627.2,410.4h-6.4l-5.6,16.8h8C633.6,427.2,644,410.4,627.2,410.4z"/>
<path class="st0" d="M267.2,410.4h-6.4l-5.6,16.8h8C275.2,427.2,284,410.4,267.2,410.4z"/>
<polygon class="st0" points="304.8,330.4 303.2,308.8 290.4,330.4 "/>
<path class="st0" d="M352.8,415.2c-6.4,7.2-10.4,16.8-11.2,26.4c-0.8,5.6,0,11.2,1.6,16c2.4,5.6,9.6,8,15.2,4.8
	c1.6-0.8,3.2-1.6,4-3.2c9.6-10.4,14.4-24.8,12-39.2c-0.8-6.4-7.2-11.2-13.6-9.6C356.8,411.2,354.4,412.8,352.8,415.2z"/>
</svg>
