<?xml version="1.0" encoding="utf-8"?>
<!-- Generator: Adobe Illustrator 27.7.0, SVG Export Plug-In . SVG Version: 6.00 Build 0)  -->
<svg version="1.1" id="Layer_1" xmlns="http://www.w3.org/2000/svg" xmlns:xlink="http://www.w3.org/1999/xlink" x="0px" y="0px"
	 viewBox="0 0 22 22" style="enable-background:new 0 0 22 22;" xml:space="preserve">
<style type="text/css">
	.st0{fill:#127384;}
</style>
<path class="st0" d="M9.2,0.4C5.1,1.1,1.7,4.2,0.7,8c-0.5,1.7-0.5,4,0,5.7c0.9,3.3,3.8,6.2,7.2,7.2c1.7,0.5,4.3,0.5,6,0
	c3.3-1,6.2-4,7.2-7.2c0.5-1.7,0.5-4,0-5.7c-0.9-3.3-3.9-6.3-7.2-7.2C12.5,0.3,10.3,0.2,9.2,0.4z M10.7,1c0,0.1-0.3,2.1-0.7,4.5
	c-0.5,3.4-0.7,4.4-0.9,4.6c-0.1,0.1-1.2,1-2.4,1.9c-1.2,0.9-2.6,2.1-3.3,2.7s-1.2,1-1.3,1c-0.2,0.1-1-2-1.2-3.1
	c-0.3-1.7-0.1-3.7,0.6-5.5c1-2.6,3.4-4.9,6.2-5.8C9.1,0.9,10.7,0.7,10.7,1z M13.7,1.3c4.5,1.4,7.4,5.6,7.1,10.3
	c-0.1,1.2-0.6,3-1,3.9l-0.2,0.3l-1.2-1c-0.7-0.6-2.3-1.8-3.6-2.8c-1.5-1.2-2.4-2-2.5-2.2C12.1,9.5,11,1.1,11,0.9
	C11,0.7,12.8,1,13.7,1.3z M12.1,12.9c6,2.4,7.2,2.9,7.2,3c0.1,0.2-1.2,1.9-2.1,2.6c-3.1,2.5-7.5,3-11.1,1.2
	c-0.9-0.5-2.3-1.5-2.9-2.3c-0.8-0.9-1.1-1.4-0.9-1.5c0.1-0.1,1.2-0.5,2.4-1c1.3-0.5,2.7-1.1,3.2-1.3c1.2-0.6,2.6-1.1,2.8-1.1
	C10.8,12.4,11.4,12.6,12.1,12.9z"/>
</svg>
