<?xml version="1.0" encoding="UTF-8"?>
<!DOCTYPE svg PUBLIC "-//W3C//DTD SVG 1.0//EN" "http://www.w3.org/TR/2001/REC-SVG-20010904/DTD/svg10.dtd">
<!-- Creator: CorelDRAW X7 -->
<svg xmlns="http://www.w3.org/2000/svg" xml:space="preserve" width="7.7894mm" height="7.7894mm" version="1.0" style="shape-rendering:geometricPrecision; text-rendering:geometricPrecision; image-rendering:optimizeQuality; fill-rule:evenodd; clip-rule:evenodd"
viewBox="0 0 169 169"
 xmlns:xlink="http://www.w3.org/1999/xlink">
 <defs>
  <style type="text/css">
   <![CDATA[
    .fil0 {fill:none}
    .fil1 {fill:#221E1F}
   ]]>
  </style>
 </defs>
 <g id="Plan_x0020_1">
  <metadata id="CorelCorpID_0Corel-Layer"/>
  <rect class="fil0" width="169" height="169" rx="18" ry="18"/>
  <g id="_3024393438032">
   <path class="fil1" d="M16 98c3,0 6,-3 8,-6 13,-10 45,-36 60,-36 17,0 51,28 66,41 0,1 1,1 2,1 2,-3 2,-13 0,-17 -1,-4 -5,-8 -7,-10 -3,-3 -6,-6 -9,-9 -3,-3 -6,-6 -9,-9 -6,-6 -31,-31 -43,-31 -12,0 -40,27 -47,35 -1,2 -3,3 -4,5 -4,3 -6,5 -9,9 -3,3 -6,5 -8,10 -1,3 -2,14 0,17z"/>
   <path class="fil1" d="M152 146c2,-2 2,-11 1,-14 -1,-7 -9,-13 -14,-19l-33 -30c-3,-3 -6,-5 -9,-7 -9,-6 -13,-7 -23,-1 -11,6 -26,20 -35,28 -4,5 -11,12 -16,17 -8,8 -8,12 -8,23 1,6 4,2 9,-2 11,-9 34,-26 47,-33 9,-4 14,-5 24,-1 10,5 21,12 30,18 5,4 17,14 22,18 3,3 3,3 5,3z"/>
  </g>
 </g>
</svg>
