<?xml version="1.0" encoding="utf-8"?>
<!-- Generator: Adobe Illustrator 27.7.0, SVG Export Plug-In . SVG Version: 6.00 Build 0)  -->
<svg version="1.1" id="Layer_1" xmlns="http://www.w3.org/2000/svg" xmlns:xlink="http://www.w3.org/1999/xlink" x="0px" y="0px"
	 viewBox="0 0 2500 2467" style="enable-background:new 0 0 2500 2467;" xml:space="preserve">
<style type="text/css">
	.st0{fill:#127384;}
</style>
<path class="st0" d="M1.7,897.4c-0.8,1.4-1.7,62.1-1.4,134.7c0,121.7,0.6,132.5,4.8,135.8c3.7,2.5,15,3.4,40.4,2.8l35.3-0.8
	l0.8-42.1c0.3-25.4,2-43.8,4-46c2.3-2.8,19.8-3.7,80.5-3.7c76.8,0,77.4,0,83.6,6.5c8.5,8.8,40.7,45.2,55.6,62.7
	c20.6,24.6,18.9,24,65.8,24c33.6,0,41.5-0.8,41.5-4c0-2.3-14.1-21.5-31.1-42.9c-17.2-21.7-30.8-41-30.5-42.6
	c0.6-2,8.5-9.6,17.8-17.2c9.3-7.3,18.1-16.1,19.8-19.5c1.7-3.1,4.2-7.6,5.9-9.6c1.7-2.3,5.4-11.3,7.9-20.3c4.8-15.8,4.8-17.2,0-36.7
	c-9.3-37.3-26-61.3-48.9-70.6c-34.2-13.6-29.7-13.3-194.6-13.3C62.1,894.6,2.8,895.7,1.7,897.4L1.7,897.4z M312.1,971.1
	c9.9,11.6,9.6,23.4-0.8,33.9l-8.5,8.2l-108.2-0.6l-108.2-0.8l-0.8-24.9l-0.8-24.6h220L312.1,971.1z M674.4,901.1
	c-3.4,3.7-16.9,22.3-30.2,41.5c-33.9,48.9-47.2,68.1-68.9,98.8c-14.7,20.9-57.9,82.5-81.9,117.2c-2,2.5-1.4,5.4,1.1,8.2
	c3.1,4,9.9,4.5,47.7,4l44.1-0.8l18.4-27.7l18.4-27.4l104.5,0.6l104.5,0.8l13.3,18.4c7.3,10.2,16.9,22.6,21.5,27.4l8.2,9.3h41.5
	c33.3,0,41.2-0.8,41.2-4c0-2.3-7.9-15-17.5-28.2c-22.3-30.8-46.9-65.5-72.6-102c-11-15.5-21.5-30.5-23.4-33
	c-2-2.8-9.3-13.3-16.4-23.4c-7.1-10.2-21.2-29.9-31.6-44.3c-10.7-14.1-19.2-26.5-19.2-27.7c0-0.8-2.5-4.5-5.6-7.9
	c-5.6-5.9-8.2-6.2-48.3-6.2C682.3,894.6,680.4,894.9,674.4,901.1L674.4,901.1z M747.9,994c7.9,11.3,19.8,29.1,27.1,39.5
	c7.1,10.2,12.1,19.5,11.3,20.3c-2.3,2.3-112.4,2.3-114.7,0c-0.8-0.8,4.2-10.2,11.3-20.3c7.3-10.4,19.2-28.2,27.1-39.5
	c8.5-12.4,15.8-20.3,18.9-20.3C732,973.7,739.4,981.6,747.9,994L747.9,994z M1033.1,896.6c-1.1,0.8-2,61.9-2,135.3
	c0,118.6,0.6,133.9,4.5,138.1c3.7,3.7,10.4,4.2,39,3.7l34.2-0.8l1.4-96c1.4-89.5,2.3-103.1,8.2-103.1c2.3,0,15,9.6,35.6,26.8
	c6.2,5.4,16.9,14.1,24,19.8c7.1,5.4,22.6,17.8,34.7,27.7c12.1,9.6,30.2,23.7,39.8,31.6c34.2,27.1,59.6,47.7,61,49.4
	c0.8,0.8,13.6,11.3,28.5,23.4l27.1,21.7h43.5c30.2,0,44.9-1.1,47.2-3.4c2.5-2.5,3.4-36.2,3.4-133.6V906.7l-6.5-5.9
	c-5.9-5.6-9.6-6.2-39.3-6.2c-18.1,0-34.7,0.8-37.3,1.7c-4,1.4-4.5,11.9-4.5,87.6c0,74-0.6,86.1-4.2,87.6
	c-2.5,1.1-12.1-4.5-24.6-14.7c-11.3-9.3-31.9-26-46-37.6c-13.8-11.3-31.6-25.7-39.5-31.9c-7.6-6.2-19.2-15.5-25.4-20.6
	c-12.4-10.7-26.3-21.7-57.9-46.3c-11.9-9-22.9-18.6-25.1-21.2c-3.4-4-11.6-4.5-61-4.5C1060.5,894.6,1033.9,895.4,1033.1,896.6
	L1033.1,896.6z M1620,900.5c-17.2,5.9-30.2,18.1-38.1,35.6c-5.6,12.7-5.9,18.1-5.9,93.8v80.5l8.8,17.5c6.5,13.3,11.9,19.8,23.4,27.7
	c8.2,5.6,16.9,10.2,19.5,10.2s5.6,1.1,6.5,2.8c1.1,1.7,50.8,2.8,139.5,2.8c154.5,0,146.3,1.1,168.3-21.2
	c17.8-17.8,21.2-30.8,21.2-83.3c0-39.5-0.6-44.9-5.1-49.1c-4.8-4.2-15.8-4.5-112.4-4l-107,0.8l-0.8,24.3
	c-0.6,19.5,0.3,25.4,3.7,29.1c4,4,14.1,4.5,75.1,4.5c58.5,0,70.9,0.6,72,4c1.7,4.8-2.8,14.7-11,23.4l-5.6,6.5h-106.8
	c-95.5,0-106.8-0.6-110.1-4.8c-3.1-3.4-4-16.9-4-58.5c0-52.2,0.3-54.2,6.5-62.4c14.1-18.1,14.7-18.1,122.3-18.4
	c107.6,0,103.9-0.6,108.5,17.8c2.8,11.3,9,13.3,40.1,13.3c30.8,0,34.7-1.7,34.7-15.3c0-28.8-26.3-69.5-48-74
	c-4-0.8-11.6-2.8-16.9-4.2c-5.9-1.7-62.1-3.1-137-3.4C1649.9,896,1632.4,896.6,1620,900.5L1620,900.5z M2158,897.4l-72,1.4
	l-0.8,132.7c-0.6,122.3-0.3,133,4.2,136.1c3.7,2.8,44.3,3.7,180.5,3.7c157.6,0,175.7-0.6,177.4-4.5c3.7-9.6,1.7-47.7-2.8-54.2
	l-4.2-6.2h-133.9c-129.6,0-134.2-0.3-137-5.4c-4-7.6-3.7-23.7,0.8-29.4c3.1-4.2,14.4-4.8,119.2-5.4l115.8-0.8l0.8-26.5
	c0.6-16.9-0.3-27.7-2.5-30.2c-2.5-3.4-23.2-4-118.3-4c-127.7,0-118.6,1.4-118.6-18.6c0-5.6,1.4-12.4,2.8-15.5
	c2.8-5.1,7.3-5.4,139.5-5.4c122,0,137-0.6,138.4-4.5c0.8-2.5,1.7-14.7,1.7-27.4c0-20.9-0.8-24-7.1-31.1l-7.3-7.6l-102.2,0.6
	C2276,895.4,2197.5,896.6,2158,897.4L2158,897.4z M0.3,1301.8v135C0,1556.3,0.6,1565.6,5.1,1569c3.7,2.5,15,3.4,40.4,2.8l35.3-0.8
	l1.4-45.2c0.8-24.9,2.5-46.9,3.7-48.9c1.7-2.5,20.9-3.4,79.6-3.4h77.4l26.3,30.2c14.4,16.7,34.5,39,44.6,49.4l18.6,19.2h41.2
	c22.9,0,42.1-1.1,42.9-2.5c0.8-1.4-2.8-7.9-8.2-14.7s-19.5-24.9-31.1-39.8c-11.6-15-22.3-28-24-29.1c-5.1-3.1-3.1-12.4,3.4-15.8
	c3.7-2,8.2-5.1,10.2-7.1c2-2.3,5.9-5.4,8.5-7.3c9.9-7.1,20.3-24.3,26-42.1c5.6-17.5,5.9-18.6,1.1-39.3
	c-7.3-31.9-18.9-51.1-38.7-64.4c-21.7-14.7-23.2-14.7-199.4-14.7H0.3L0.3,1301.8z M313.5,1367.9c8.5,10.7,7.6,22.6-2.3,32.5
	l-8.5,8.2l-108.2-0.6l-108.2-0.8l-0.8-23.4l-0.8-23.2h223.1L313.5,1367.9z M563.4,1300.7c-13.6,5.6-27.1,16.4-32.5,26.3
	c-9.9,18.1-11,26.3-11,100.5c0,81.6,2.3,98,16.1,116.4c9.3,12.4,13.3,15.5,28,22.9c11.3,5.6,15.5,5.6,165.2,4.8
	c164.7-0.8,161.5-0.6,182.4-15.5c4.8-3.4,11.9-11,15.5-16.9c6.5-10.4,6.5-11.3,6.5-99.4c0-83.6-0.3-89.5-5.6-98.8
	c-7.6-13.6-20.9-28-30.8-33c-22.3-11.6-28.5-12.1-178.2-11.9C590.3,1295.9,573.9,1296.5,563.4,1300.7L563.4,1300.7z M849.8,1369.1
	c5.9,5.6,6.2,7.9,6.2,60.4c0,49.7-0.6,55.4-5.4,61.3l-5.4,6.8l-114.7,0.8c-77.4,0.6-116.6-0.3-120.3-2.3c-5.4-2.8-5.6-5.9-5.6-62.1
	c0-55.6,0.3-59.6,5.6-65c5.4-5.4,9.3-5.6,119.5-5.6C840.5,1363.4,843.9,1363.7,849.8,1369.1L849.8,1369.1z M1014.2,1299.6
	c0,3.7,9.6,18.6,33.9,52.2c36.7,50.8,56.2,78.5,67.8,95.2c7.1,10.2,14.1,20.1,15.5,21.7c1.7,2,6.8,9,11.6,16.1
	c19.8,29.1,44.9,64.4,53.9,75.4l9.6,12.1h86.1l23.2-31.9c24.6-34.2,35.9-49.7,72.9-102.2c36.4-51.1,60.2-84.4,78.2-109.3
	c24-33,23.7-33.3-31.6-33.3c-48.9,0-48.9,0-60.4,18.4c-4,6.2-14.7,21.7-23.7,34.5c-9,12.7-31.3,44.6-49.4,70.6
	c-42.9,61.3-53.9,75.7-58.2,75.7c-3.4,0-13.3-13.3-60.2-81.9c-13-18.6-28.8-41.5-35.6-50.8c-6.5-9.3-18.1-25.7-25.4-36.2
	c-22.6-32.2-18.4-30.2-66.4-30.2C1022.7,1295.6,1014.2,1296.5,1014.2,1299.6L1014.2,1299.6z M1586.4,1301.8
	c-2.8,10.7-2,247.1,1.1,254.7c5.9,16.1,4,15.8,189.8,15.3l170.3-0.8l0.8-31.1c0.6-26.8,0-31.3-4.2-34.5c-3.7-2.8-34.5-3.7-135-3.7
	c-101.4,0-131.3-0.8-135.3-3.7c-3.7-2.8-4.8-6.8-4-18.9l0.8-15.5l120-1.4l120-1.4l0.8-24c1.1-38.4,12.7-35.3-122.6-36.1
	c-86.7-0.6-115.8-1.7-117.5-4.2c-1.1-2-2.3-9.3-2.3-16.7c0-10.4,1.1-14.1,5.4-16.4c3.7-1.7,52.8-2.8,139.8-2.8H1949v-29.1
	c0-18.9-1.1-30.2-3.4-32.5c-2.5-2.5-46.6-3.4-180.5-3.4h-177.1L1586.4,1301.8z M2086.5,1297.6c-1.1,0.8-2,61-2,133.6
	c0,125.1,0.3,132.2,5.4,136.7c4.2,4,10.4,4.5,38.7,4l33.6-0.8l0.8-43.5c0.3-26.3,2-45.2,3.7-47.4c2.5-2.8,20.1-3.7,81.6-3.7h78.2
	l32.2,37.3c17.8,20.6,37.3,42.1,43.2,48l11,10.7h41.8c25.1,0,42.4-1.1,43.5-2.8c1.7-2.5-11.6-22.3-19.8-29.7
	c-1.7-1.7-10.7-13-20.3-25.4c-9.3-12.4-19.2-24.3-21.7-26.5c-7.1-5.9-5.4-13.8,4.2-18.9c11.3-5.6,25.4-19.8,35.6-35.3
	c7.3-11.9,7.9-14.1,7.6-42.1c-0.3-35.9-5.6-50.3-27.7-72.3c-24.3-24.3-20.1-23.7-207-23.7
	C2160.8,1295.6,2087.4,1296.5,2086.5,1297.6L2086.5,1297.6z M2395.2,1368.2c4.8,6.2,5.9,10.2,4.2,19.2
	c-3.1,21.5-0.3,21.2-121.4,21.2c-79.9,0-108.5-0.8-111-3.4c-3.7-3.7-4.8-39.5-1.4-42.6c0.8-1.1,51.7-2,112.7-2h111L2395.2,1368.2z"
	/>
</svg>
