<?xml version="1.0" encoding="UTF-8"?>
<!DOCTYPE svg PUBLIC "-//W3C//DTD SVG 1.1//EN" "http://www.w3.org/Graphics/SVG/1.1/DTD/svg11.dtd">
<!-- Creator: CorelDRAW X7 -->
<svg xmlns="http://www.w3.org/2000/svg" xml:space="preserve" width="7.7894mm" height="7.7894mm" version="1.1" style="shape-rendering:geometricPrecision; text-rendering:geometricPrecision; image-rendering:optimizeQuality; fill-rule:evenodd; clip-rule:evenodd"
viewBox="0 0 97 97"
 xmlns:xlink="http://www.w3.org/1999/xlink">
 <defs>
  <style type="text/css">
   <![CDATA[
    .fil0 {fill:none}
    .fil1 {fill:#2B2A29}
   ]]>
  </style>
 </defs>
 <g id="Plan_x0020_1">
  <metadata id="CorelCorpID_0Corel-Layer"/>
  <rect class="fil0" width="96.6639" height="96.6639" rx="10" ry="10"/>
  <g id="_3024399311824">
   <path class="fil1" d="M24 30c-12,6 -18,12 -18,18 0,3 1,6 3,9 7,8 20,12 40,13l1 0c9,0 17,-1 25,-4 11,-6 16,-11 16,-16l0 -2c0,-3 -1,-6 -3,-9 -10,-8 -23,-12 -39,-12 -9,0 -17,1 -25,3zm-13 12c9,-7 20,-11 35,-11l4 0c5,0 8,0 12,1 17,4 26,9 26,16 0,3 -1,5 -3,7 -8,8 -20,11 -36,11l-7 0c-22,-3 -33,-9 -33,-18 0,-2 1,-4 2,-6z"/>
   <path class="fil1" d="M21 39l0 20 6 0 0 -9 0 0c5,6 7,9 7,9l7 0 -8 -12 6 -10 -5 0c-2,2 -4,4 -6,8l-1 0 0 -8 -7 0 0 1c1,0 1,0 1,1z"/>
   <path class="fil1" d="M45 40l0 19 6 0 0 -22 -7 0 0 1c1,0 1,0 1,2z"/>
   <path class="fil1" d="M66 45l6 14 5 0 -7 -22 -9 0 0 1 1 0 0 0 -6 21 5 0c0,0 2,-5 5,-14l0 0z"/>
  </g>
 </g>
</svg>
