<?xml version="1.0" encoding="utf-8"?>
<!-- Generator: Adobe Illustrator 27.7.0, SVG Export Plug-In . SVG Version: 6.00 Build 0)  -->
<svg version="1.1" id="Layer_1" xmlns="http://www.w3.org/2000/svg" xmlns:xlink="http://www.w3.org/1999/xlink" x="0px" y="0px"
	 viewBox="0 0 800 800" style="enable-background:new 0 0 800 800;" xml:space="preserve">
<style type="text/css">
	.st0{fill-rule:evenodd;clip-rule:evenodd;fill:#FFFFFF;}
	.st1{fill-rule:evenodd;clip-rule:evenodd;fill:#127384;}
</style>
<g>
	<path class="st0" d="M0,0h800v800H0V0z"/>
	<path class="st1" d="M399.9,11.9c-214.4,0-388.3,173.8-388.3,388.3c0,214.4,173.8,388.3,388.3,388.3
		c214.4,0,388.3-173.8,388.3-388.3C788.1,185.7,614.3,11.9,399.9,11.9L399.9,11.9z M399.9,753.6c-195.2,0-353.4-158.2-353.4-353.4
		C46.4,205,204.6,46.7,399.9,46.7C595,46.7,753.3,205,753.3,400.1C753.3,595.4,595,753.6,399.9,753.6L399.9,753.6z"/>
	<path class="st1" d="M322.5,136.1c25.1-7.3,51.2-11.1,77.4-11c26.8,0,52.8,3.8,77.3,11l-77.3,171.3L322.5,136.1L322.5,136.1z"/>
	<path class="st1" d="M547.5,168c29,18.5,54.2,42.2,74.5,69.9L495.2,518.7l-49-108.9h-92.8l-49,108.9l-126.7-281
		c20.3-27.6,45.5-51.2,74.3-69.7l101.3,224.7h93.1L547.5,168z M134,329c-6.2,23.2-9.3,47.2-9.3,71.2c0,107.8,62,201.1,152.3,246.2
		L134,329z"/>
	<path class="st1" d="M323.7,664.6c24.7,7.1,50.4,10.7,76.1,10.7c26.4,0,51.9-3.7,76-10.6l-76-168.8L323.7,664.6z M522.6,646.4
		c90.3-45.1,152.3-138.4,152.3-246.2c0-24.4-3.2-48.1-9.1-70.6L522.6,646.4L522.6,646.4z"/>
</g>
</svg>
